<?xml version="1.0" encoding="UTF-8" standalone="no"?>
<!-- Created with Inkscape (http://www.inkscape.org/) -->

<svg
   xmlns:dc="http://purl.org/dc/elements/1.1/"
   xmlns:cc="http://creativecommons.org/ns#"
   xmlns:rdf="http://www.w3.org/1999/02/22-rdf-syntax-ns#"
   xmlns:svg="http://www.w3.org/2000/svg"
   xmlns="http://www.w3.org/2000/svg"
   xmlns:sodipodi="http://sodipodi.sourceforge.net/DTD/sodipodi-0.dtd"
   xmlns:inkscape="http://www.inkscape.org/namespaces/inkscape"
   width="136.6441mm"
   height="38.63847mm"
   viewBox="0 0 136.6441 38.63847"
   version="1.1"
   id="svg8"
   sodipodi:docname="acbox.svg"
   inkscape:version="0.92.3 (2405546, 2018-03-11)">
  <defs
     id="defs2" />
  <sodipodi:namedview
     id="base"
     pagecolor="#ffffff"
     bordercolor="#666666"
     borderopacity="1.0"
     inkscape:pageopacity="0.0"
     inkscape:pageshadow="2"
     inkscape:zoom="0.7"
     inkscape:cx="71.726989"
     inkscape:cy="185.19272"
     inkscape:document-units="mm"
     inkscape:current-layer="layer1"
     showgrid="false"
     inkscape:window-width="848"
     inkscape:window-height="704"
     inkscape:window-x="1716"
     inkscape:window-y="8"
     inkscape:window-maximized="0" />
  <metadata
     id="metadata5">
    <rdf:RDF>
      <cc:Work
         rdf:about="">
        <dc:format>image/svg+xml</dc:format>
        <dc:type
           rdf:resource="http://purl.org/dc/dcmitype/StillImage" />
        <dc:title />
      </cc:Work>
    </rdf:RDF>
  </metadata>
  <g
     inkscape:label="Layer 1"
     inkscape:groupmode="layer"
     id="layer1"
     transform="translate(-37.316458,-210.97265)">
    <path
       style="fill:#f7f1de;stroke:none;stroke-width:0.99999994px;stroke-linecap:butt;stroke-linejoin:miter;stroke-opacity:1;fill-opacity:1"
       d="m 399.99023,797.51172 v 0 l -0.72656,-0.008 c 0,0 -0.86168,1.27416 -0.8164,1.34961 v 0 c 0.45639,-0.75073 0.8164,-1.34961 0.8164,-1.34961 l -110.61328,1.26171 c 0,0 -102.26073,-2.11531 -129.54297,17.50391 0,0 -17.14229,6.42886 -18.03515,30.35742 -0.89286,23.92857 16.25976,39.51758 16.25976,39.51758 0,0 4.70761,3.01301 0,20.58203 -4.70761,17.56906 13.38292,25.63183 16.28711,26.89453 2.75592,1.19821 24.33047,6.48028 75.29102,6.58594 l 148.58398,3.20508 145.71484,-2.97266 -0.24804,-0.24804 c 55.75449,0.36678 79.07229,-5.3212 81.94531,-6.57032 2.90419,-1.2627 20.9947,-9.32547 16.28711,-26.89453 -4.70763,-17.56902 0,-20.58203 0,-20.58203 0,0 17.15459,-15.58901 16.26172,-39.51758 C 656.5622,822.69839 639.41797,816.26953 639.41797,816.26953 612.13571,796.65031 509.875,798.76563 509.875,798.76562 l -109.58984,-1.25 z"
       id="path869"
       transform="scale(0.26458333)"
       inkscape:connector-curvature="0"
       sodipodi:nodetypes="ccccccccscsccccccccscccc" />
  </g>
</svg>
